<svg xmlns="http://www.w3.org/2000/svg" xmlns:xlink="http://www.w3.org/1999/xlink" width="48" zoomAndPan="magnify" viewBox="0 0 36 36.000001" height="48" preserveAspectRatio="xMidYMid meet" version="1.0"><defs><clipPath id="0aef9c8dd3"><path d="M 0.488281 15 L 18 15 L 18 31 L 0.488281 31 Z M 0.488281 15 " clip-rule="nonzero"/></clipPath><clipPath id="ca39011749"><path d="M 0.488281 1 L 12 1 L 12 21 L 0.488281 21 Z M 0.488281 1 " clip-rule="nonzero"/></clipPath><clipPath id="6b9cb76760"><path d="M 24 14 L 35.511719 14 L 35.511719 34 L 24 34 Z M 24 14 " clip-rule="nonzero"/></clipPath><clipPath id="cfda50fb62"><path d="M 7 22 L 24 22 L 24 35.027344 L 7 35.027344 Z M 7 22 " clip-rule="nonzero"/></clipPath><clipPath id="6e0e9c4a3f"><path d="M 18 4 L 35.511719 4 L 35.511719 20 L 18 20 Z M 18 4 " clip-rule="nonzero"/></clipPath></defs><g clip-path="url(#0aef9c8dd3)"><path fill="#ffcc2f" d="M 6.800781 30.976562 L 17.082031 24.8125 L 11.21875 21.429688 L 11.21875 21.425781 L 0.625 15.304688 C 0.535156 16.039062 0.488281 16.777344 0.488281 17.511719 C 0.488281 22.746094 2.785156 27.632812 6.800781 30.976562 " fill-opacity="1" fill-rule="nonzero"/></g><g clip-path="url(#ca39011749)"><path fill="#ffcc2f" d="M 0.800781 14.195312 L 11.21875 20.214844 L 11.21875 1.359375 C 5.839844 3.621094 1.902344 8.457031 0.800781 14.195312 " fill-opacity="1" fill-rule="nonzero"/></g><path fill="#ffcc2f" d="M 18 0 C 16.035156 0 14.109375 0.324219 12.269531 0.960938 L 12.269531 12.988281 L 28.488281 3.488281 C 25.472656 1.234375 21.78125 0 18 0 " fill-opacity="1" fill-rule="nonzero"/><g clip-path="url(#6b9cb76760)"><path fill="#ffcc2f" d="M 35.195312 20.855469 L 24.78125 14.8125 L 24.78125 33.664062 C 30.152344 31.40625 34.085938 26.582031 35.195312 20.855469 " fill-opacity="1" fill-rule="nonzero"/></g><g clip-path="url(#cfda50fb62)"><path fill="#ffcc2f" d="M 18 35.027344 C 19.964844 35.027344 21.890625 34.703125 23.730469 34.066406 L 23.730469 22.050781 L 7.6875 31.667969 C 10.691406 33.867188 14.242188 35.027344 18 35.027344 " fill-opacity="1" fill-rule="nonzero"/></g><g clip-path="url(#6e0e9c4a3f)"><path fill="#ffcc2f" d="M 35.371094 19.746094 C 35.464844 19.003906 35.511719 18.257812 35.511719 17.511719 C 35.511719 12.363281 33.277344 7.527344 29.363281 4.1875 L 18.996094 10.261719 L 24.519531 13.449219 L 35.371094 19.746094 " fill-opacity="1" fill-rule="nonzero"/></g></svg>