<svg xmlns="http://www.w3.org/2000/svg" height="800" width="1200" viewBox="-5.25591 -2.582875 45.55122 15.49725"><path d="M9.427 4.9849H7.7822c-.3496 0-.6738-.2074-.7772-.5179-.2977-.8678-1.1525-1.179-1.1525-1.179-.3108-.1164-.544-.4138-.544-.7764V.8666c0-.452.3757-.8146.8287-.8146.4533 0 .816.3366.816.8146l-.0127 1.3208L8.844.2852a.82.82 0 011.1656 0c.3239.322.3239.853 0 1.1772L8.1315 3.3272H9.427c.4537 0 .8287.3757.8287.8283 0 .4537-.375.8294-.8287.8294m-.013 1.9925l-1.321-.0127 1.9036 1.9036a.821.821 0 010 1.166.8208.8208 0 01-1.1653 0L6.9533 8.156v1.2947c0 .4925-.3754.8294-.829.8294-.453 0-.8287-.3757-.8287-.8294V7.8064c0-.35.22-.6741.5312-.7771.8675-.2981 1.1653-1.1515 1.1653-1.1515.1164-.3105.4275-.5436.7771-.5436H9.414c.4533 0 .829.376.829.8283 0 .4522-.3365.8149-.829.8149M4.1183 10.267c-.4533 0-.816-.298-.8032-.8163L3.328 8.13l-1.9036 1.9043c-.3235.3235-.8548.3235-1.1652 0-.3242-.3242-.3242-.8555 0-1.166l1.8644-1.8781H.8417a.8257.8257 0 01-.8286-.8276.8262.8262 0 01.8286-.8283h1.645c.3493 0 .6604.2074.7768.5178.2978.8792 1.1395 1.1773 1.1395 1.1773.3235.1164.5444.4145.5444.7771v1.6443c0 .4537-.363.8163-.829.8163m.2977-6.9656c-.8679.3108-1.1656 1.1522-1.1656 1.1522-.1168.3108-.4272.5444-.7772.5444H.8287C.3754 4.998 0 4.6222 0 4.169c0-.453.3108-.8157.8287-.8157l1.3215.0127L.2459 1.4624a.8194.8194 0 010-1.1645.8206.8206 0 011.1656 0l1.8778 1.8768V.8797c0-.452.3627-.8277.829-.8277.453 0 .8157.3757.8157.8276V2.524c0 .3503-.2075.6735-.518.7775m26.7506 7.03c-.8805 0-1.9939-.1419-2.5502-.3105l.4406-1.8136c.4.1817 1.294.4664 2.1096.4664.9846 0 1.7226-.4273 1.7226-1.2954 0-.7377-.4536-1.1254-1.7226-1.6165-1.2947-.5052-2.3689-1.1271-2.3689-2.9658C28.7977.996 30.2212 0 32.3841 0c.9193 0 1.8517.1813 2.4087.3627l-.4272 1.76c-.3757-.2071-1.101-.4664-1.9815-.4664-1.0492 0-1.5152.4018-1.5152 1.0876 0 .7.5178.9589 1.6443 1.451 1.5547.6607 2.5262 1.3208 2.5262 3.054 0 1.917-1.5286 3.0826-3.8728 3.0826m-6.9532-4.5311h-1.1907v2.8991h1.2552c.9846 0 1.7484-.3884 1.7484-1.4626 0-.984-.712-1.4365-1.813-1.4365m.0128-4.1307h-1.2034v2.6289h1.1127c.842 0 1.5674-.4533 1.5674-1.36 0-.855-.5182-1.2689-1.4767-1.2689m.1037 8.5718h-3.2625V.1295h3.4308c1.9688 0 3.2639.9574 3.2639 2.6409 0 1.1917-.7903 1.8644-1.5413 2.1625 1.036.272 1.8778.9839 1.8778 2.316 0 1.7618-1.3596 2.9926-3.7687 2.9926m-8.2603-8.5591h-.9973v2.8878h.7772c1.0491 0 1.8118-.4533 1.8118-1.4375 0-.8679-.557-1.4503-1.5917-1.4503m1.8768 8.559C17.3373 9.0108 16.238 7.068 15.59 6.059h-.518v4.1825h-1.9427V.1295h3.1994c2.1096 0 3.3658 1.009 3.3658 3.029 0 1.3856-.9973 2.2404-2.0457 2.5904.673.9175 1.9681 3.171 2.6155 4.4926z" fill="#15366f"/></svg>